<svg xmlns="http://www.w3.org/2000/svg" xmlns:xlink="http://www.w3.org/1999/xlink" width="1080" zoomAndPan="magnify" viewBox="0 0 810 809.999993" height="1080" preserveAspectRatio="xMidYMid meet" version="1.0"><defs><clipPath id="81ca87453f"><path d="M 0 590 L 810 590 L 810 691.707031 L 0 691.707031 Z M 0 590 " clip-rule="nonzero"/></clipPath></defs><path fill="#01045c" d="M 759.375 354.371094 L 50.625 354.371094 C 22.664062 354.371094 0 377.035156 0 404.996094 C 0 432.957031 22.664062 455.621094 50.625 455.621094 L 759.375 455.621094 C 787.335938 455.621094 810 432.957031 810 404.996094 C 810 377.035156 787.335938 354.371094 759.375 354.371094 Z M 759.375 354.371094 " fill-opacity="1" fill-rule="nonzero"/><g clip-path="url(#81ca87453f)"><path fill="#01045c" d="M 759.375 590.621094 L 50.625 590.621094 C 22.664062 590.621094 0 613.285156 0 641.246094 C 0 669.207031 22.664062 691.871094 50.625 691.871094 L 759.375 691.871094 C 787.335938 691.871094 810 669.207031 810 641.246094 C 810 613.285156 787.335938 590.621094 759.375 590.621094 Z M 759.375 590.621094 " fill-opacity="1" fill-rule="nonzero"/></g><path fill="#01045c" d="M 50.625 219.371094 L 759.375 219.371094 C 787.335938 219.371094 810 196.707031 810 168.746094 C 810 140.785156 787.335938 118.121094 759.375 118.121094 L 50.625 118.121094 C 22.664062 118.121094 0 140.785156 0 168.746094 C 0 196.707031 22.664062 219.371094 50.625 219.371094 Z M 50.625 219.371094 " fill-opacity="1" fill-rule="nonzero"/></svg>